solid Battery Holder
facet normal 6.383782391594661e-16 4.676480872314293e-15 1.0
  outer loop
    vertex -17.333769291926444 85.97207849530639 63.95856499999935
    vertex -4.333769291926527 80.97207849530528 63.95856499999932
    vertex -4.333769291926331 85.97207849530524 63.95856499999932
  endloop
endfacet
facet normal 6.383782391594661e-16 4.676480872314293e-15 1.0
  outer loop
    vertex -4.333769291926527 80.97207849530528 63.95856499999932
    vertex -17.333769291926444 85.97207849530639 63.95856499999935
    vertex -17.333769291926455 80.97207849530663 63.958564999999375
  endloop
endfacet
facet normal -1.0 -1.1205164831315839e-14 2.241032966263656e-15
  outer loop
    vertex -2.8337692919266706 85.97207849530658 65.95856499999931
    vertex -2.8337692919281308 80.97207849530659 68.95856499999928
    vertex -2.833769291926663 85.97207849530672 68.95856499999927
  endloop
endfacet
facet normal -1.0 -1.1205164831315839e-14 2.241032966263656e-15
  outer loop
    vertex -2.8337692919281308 80.97207849530659 68.95856499999928
    vertex -2.8337692919266706 85.97207849530658 65.95856499999931
    vertex -2.8337692919266737 85.9720784953064 63.95856499999932
  endloop
endfacet
facet normal -1.0 -1.1205164831315839e-14 2.241032966263656e-15
  outer loop
    vertex -2.8337692919281308 80.97207849530659 68.95856499999928
    vertex -2.8337692919266737 85.9720784953064 63.95856499999932
    vertex -2.833769291926688 80.97207849530628 63.95856499999934
  endloop
endfacet
facet normal 1.0 -5.440092820663267e-15 -6.383782391594407e-16
  outer loop
    vertex -4.333769291926321 85.97207849530453 68.95856499999927
    vertex -4.333769291926527 80.97207849530528 63.95856499999932
    vertex -4.333769291926331 85.97207849530524 63.95856499999932
  endloop
endfacet
facet normal 1.0 -5.440092820663267e-15 -6.383782391594407e-16
  outer loop
    vertex -4.333769291926527 80.97207849530528 63.95856499999932
    vertex -4.333769291926321 85.97207849530453 68.95856499999927
    vertex -4.333769291927788 80.9720784953044 68.95856499999927
  endloop
endfacet
facet normal -1.879977655032325e-15 3.947953075566948e-15 1.0
  outer loop
    vertex -4.333769291926321 85.97207849530453 68.95856499999927
    vertex -2.8337692919281308 80.97207849530659 68.95856499999928
    vertex -2.833769291926663 85.97207849530672 68.95856499999927
  endloop
endfacet
facet normal -1.879977655032325e-15 3.947953075566948e-15 1.0
  outer loop
    vertex -2.8337692919281308 80.97207849530659 68.95856499999928
    vertex -4.333769291926321 85.97207849530453 68.95856499999927
    vertex -4.333769291927788 80.9720784953044 68.95856499999927
  endloop
endfacet
facet normal 1.804778548830727e-14 -1.0 1.2951904694884818e-14
  outer loop
    vertex -9.333769291926775 61.06607849530692 46.95856499999952
    vertex -18.33376929192666 61.06607849530739 81.79472599999947
    vertex -18.333769291926505 61.066078495306826 46.95856499999952
  endloop
endfacet
facet normal 1.804778548830727e-14 -1.0 1.2951904694884818e-14
  outer loop
    vertex -18.33376929192666 61.06607849530739 81.79472599999947
    vertex -9.333769291926775 61.06607849530692 46.95856499999952
    vertex -9.333769291927114 61.06607849530759 81.79472599999954
  endloop
endfacet
facet normal -1.0 6.1696371148200714e-15 1.4741797192532217e-15
  outer loop
    vertex -18.333769291925524 174.6180784953076 46.95856499999888
    vertex -18.333769291925577 231.7079334953065 46.95856499999616
    vertex -18.333769291924845 231.70793349530604 30.95856499999477
  endloop
endfacet
facet normal -1.0 6.1696371148200714e-15 1.4741797192532217e-15
  outer loop
    vertex -18.33376929192302 235.70793349530612 26.958564999994515
    vertex -18.333769291924845 231.70793349530604 30.95856499999477
    vertex -18.33376929192302 235.7079334953062 30.958564999994618
  endloop
endfacet
facet normal -1.0 6.1696371148200714e-15 1.4741797192532217e-15
  outer loop
    vertex -18.333769291924845 231.70793349530604 30.95856499999477
    vertex -18.33376929192302 235.70793349530612 26.958564999994515
    vertex -18.33376929192593 164.55216350978225 26.958564999998973
  endloop
endfacet
facet normal -1.0 6.1696371148200714e-15 1.4741797192532217e-15
  outer loop
    vertex -18.333769291924845 231.70793349530604 30.95856499999477
    vertex -18.33376929192593 164.55216350978225 26.958564999998973
    vertex -18.333769291925524 174.6180784953076 46.95856499999888
  endloop
endfacet
facet normal -1.0 6.1696371148200714e-15 1.4741797192532217e-15
  outer loop
    vertex -18.333769291925524 174.6180784953076 46.95856499999888
    vertex -18.33376929192593 164.55216350978225 26.958564999998973
    vertex -18.333769291925684 174.61807849530763 81.79472599999941
  endloop
endfacet
facet normal -1.0 6.1696371148200714e-15 1.4741797192532217e-15
  outer loop
    vertex -18.333769291925684 174.61807849530763 81.79472599999941
    vertex -18.33376929192593 164.55216350978225 26.958564999998973
    vertex -18.333769291922614 171.0940274953076 81.7947259999981
  endloop
endfacet
facet normal -1.0 6.1696371148200714e-15 1.4741797192532217e-15
  outer loop
    vertex -18.333769291922614 171.0940274953076 81.7947259999981
    vertex -18.33376929192593 164.55216350978225 26.958564999998973
    vertex -18.333769291924664 163.80874067831493 32.60542202961235
  endloop
endfacet
facet normal -1.0 6.1696371148200714e-15 1.4741797192532217e-15
  outer loop
    vertex -18.333769291922614 171.0940274953076 81.7947259999981
    vertex -18.333769291924664 163.80874067831493 32.60542202961235
    vertex -18.33376929192434 159.31322166560648 43.45856499999899
  endloop
endfacet
facet normal -1.0 6.1696371148200714e-15 1.4741797192532217e-15
  outer loop
    vertex -18.333769291922614 171.0940274953076 81.7947259999981
    vertex -18.33376929192434 159.31322166560648 43.45856499999899
    vertex -18.333769291926185 152.16188364870163 52.77837015339227
  endloop
endfacet
facet normal -1.0 6.1696371148200714e-15 1.4741797192532217e-15
  outer loop
    vertex -18.333769291922614 171.0940274953076 81.7947259999981
    vertex -18.333769291926185 152.16188364870163 52.77837015339227
    vertex -18.333769291924607 142.84207849530728 59.92970817029734
  endloop
endfacet
facet normal -1.0 6.1696371148200714e-15 1.4741797192532217e-15
  outer loop
    vertex -18.333769291922614 171.0940274953076 81.7947259999981
    vertex -18.333769291924607 142.84207849530728 59.92970817029734
    vertex -18.333769291923037 131.98893552492024 64.4252271830058
  endloop
endfacet
facet normal -1.0 6.1696371148200714e-15 1.4741797192532217e-15
  outer loop
    vertex -18.333769291922614 171.0940274953076 81.7947259999981
    vertex -18.333769291923037 131.98893552492024 64.4252271830058
    vertex -18.33376929192666 61.06607849530739 81.79472599999947
  endloop
endfacet
facet normal -1.0 6.1696371148200714e-15 1.4741797192532217e-15
  outer loop
    vertex -18.333769291923037 131.98893552492024 64.4252271830058
    vertex -18.333769291924607 142.84207849530728 59.92970817029734
    vertex -18.333769291923026 133.11555769618496 63.95856499999763
  endloop
endfacet
facet normal -1.0 6.1696371148200714e-15 1.4741797192532217e-15
  outer loop
    vertex -18.33376929192666 61.06607849530739 81.79472599999947
    vertex -18.333769291923037 131.98893552492024 64.4252271830058
    vertex -18.3337692919249 120.34207849530686 65.95856499999917
  endloop
endfacet
facet normal -1.0 6.1696371148200714e-15 1.4741797192532217e-15
  outer loop
    vertex -18.33376929192666 61.06607849530739 81.79472599999947
    vertex -18.3337692919249 120.34207849530686 65.95856499999917
    vertex -18.33376929192479 108.69522146569344 64.42522718300584
  endloop
endfacet
facet normal -1.0 6.1696371148200714e-15 1.4741797192532217e-15
  outer loop
    vertex -18.33376929192666 61.06607849530739 81.79472599999947
    vertex -18.33376929192479 108.69522146569344 64.42522718300584
    vertex -18.333769291924597 107.56859929442872 63.958564999999254
  endloop
endfacet
facet normal -1.0 6.1696371148200714e-15 1.4741797192532217e-15
  outer loop
    vertex -18.33376929192666 61.06607849530739 81.79472599999947
    vertex -18.333769291924597 107.56859929442872 63.958564999999254
    vertex -18.33376929192467 97.84207849530709 59.92970817029902
  endloop
endfacet
facet normal -1.0 6.1696371148200714e-15 1.4741797192532217e-15
  outer loop
    vertex -18.33376929192666 61.06607849530739 81.79472599999947
    vertex -18.33376929192467 97.84207849530709 59.92970817029902
    vertex -18.333769291925087 88.52227334191234 52.77837015339256
  endloop
endfacet
facet normal -1.0 6.1696371148200714e-15 1.4741797192532217e-15
  outer loop
    vertex -18.33376929192666 61.06607849530739 81.79472599999947
    vertex -18.333769291925087 88.52227334191234 52.77837015339256
    vertex -18.333769291926576 81.37093532500703 43.4585649999986
  endloop
endfacet
facet normal -1.0 6.1696371148200714e-15 1.4741797192532217e-15
  outer loop
    vertex -18.33376929192666 61.06607849530739 81.79472599999947
    vertex -18.333769291926576 81.37093532500703 43.4585649999986
    vertex -18.3337692919264 76.87541631229911 32.60542202961266
  endloop
endfacet
facet normal -1.0 6.1696371148200714e-15 1.4741797192532217e-15
  outer loop
    vertex -18.33376929192666 61.06607849530739 81.79472599999947
    vertex -18.3337692919264 76.87541631229911 32.60542202961266
    vertex -18.333769291925154 76.13199348083097 26.958564999998664
  endloop
endfacet
facet normal -1.0 6.1696371148200714e-15 1.4741797192532217e-15
  outer loop
    vertex -18.33376929192666 61.06607849530739 81.79472599999947
    vertex -18.333769291925154 76.13199348083097 26.958564999998664
    vertex -18.333769291926505 61.066078495306826 46.95856499999952
  endloop
endfacet
facet normal -1.0 6.1696371148200714e-15 1.4741797192532217e-15
  outer loop
    vertex -18.333769291926505 61.066078495306826 46.95856499999952
    vertex -18.333769291925154 76.13199348083097 26.958564999998664
    vertex -18.333769291924852 31.363877495306657 26.9585649999992
  endloop
endfacet
facet normal -1.0 6.1696371148200714e-15 1.4741797192532217e-15
  outer loop
    vertex -18.333769291926505 61.066078495306826 46.95856499999952
    vertex -18.333769291924852 31.363877495306657 26.9585649999992
    vertex -18.33376929192589 41.363877495307676 36.9585649999993
  endloop
endfacet
facet normal -1.0 6.1696371148200714e-15 1.4741797192532217e-15
  outer loop
    vertex -18.33376929192589 41.363877495307676 36.9585649999993
    vertex -18.333769291924852 31.363877495306657 26.9585649999992
    vertex -18.33376929192611 31.36387749530679 36.95856499999891
  endloop
endfacet
facet normal -1.0 6.1696371148200714e-15 1.4741797192532217e-15
  outer loop
    vertex -18.333769291925528 41.36387749530772 46.95856499999858
    vertex -18.333769291926505 61.066078495306826 46.95856499999952
    vertex -18.33376929192589 41.363877495307676 36.9585649999993
  endloop
endfacet
facet normal -1.7459493117828475e-16 0.13052619222004722 -0.9914448613738112
  outer loop
    vertex -18.33376929192479 108.69522146569344 64.42522718300584
    vertex 0.6662307080745249 120.34207849530675 65.9585649999978
    vertex 0.6662307080746382 108.69522146569335 64.42522718300718
  endloop
endfacet
facet normal -1.7459493117828475e-16 0.13052619222004722 -0.9914448613738112
  outer loop
    vertex 0.6662307080745249 120.34207849530675 65.9585649999978
    vertex -18.33376929192479 108.69522146569344 64.42522718300584
    vertex -18.3337692919249 120.34207849530686 65.95856499999917
  endloop
endfacet
facet normal -1.0912387184767753e-15 -0.13052619222005699 -0.9914448613738098
  outer loop
    vertex 0.6662307080745249 120.34207849530675 65.9585649999978
    vertex -18.333769291923037 131.98893552492024 64.4252271830058
    vertex 0.6662307080763977 131.98893552492024 64.4252271830072
  endloop
endfacet
facet normal -1.0912387184767753e-15 -0.13052619222005699 -0.9914448613738098
  outer loop
    vertex -18.333769291923037 131.98893552492024 64.4252271830058
    vertex 0.6662307080745249 120.34207849530675 65.9585649999978
    vertex -18.3337692919249 120.34207849530686 65.95856499999917
  endloop
endfacet
facet normal 7.58071232125491e-15 0.9914448613738099 -0.13052619222005526
  outer loop
    vertex -18.3337692919264 76.87541631229911 32.60542202961266
    vertex 0.6662307080748011 76.13199348083079 26.958564999998675
    vertex -18.333769291925154 76.13199348083097 26.958564999998664
  endloop
endfacet
facet normal 7.58071232125491e-15 0.9914448613738099 -0.13052619222005526
  outer loop
    vertex 0.6662307080748011 76.13199348083079 26.958564999998675
    vertex -18.3337692919264 76.87541631229911 32.60542202961266
    vertex 0.666230708073737 76.87541631229851 32.605422029612754
  endloop
endfacet
facet normal 7.050592893582411e-15 0.9238795325112852 -0.38268343236509333
  outer loop
    vertex -18.333769291926576 81.37093532500703 43.4585649999986
    vertex 0.666230708073737 76.87541631229851 32.605422029612754
    vertex -18.3337692919264 76.87541631229911 32.60542202961266
  endloop
endfacet
facet normal 7.050592893582411e-15 0.9238795325112852 -0.38268343236509333
  outer loop
    vertex 0.666230708073737 76.87541631229851 32.605422029612754
    vertex -18.333769291926576 81.37093532500703 43.4585649999986
    vertex 0.6662307080734046 81.3709353250069 43.45856499999935
  endloop
endfacet
facet normal 6.0399872118678e-15 0.7933533402912327 -0.6087614290087239
  outer loop
    vertex -18.333769291925087 88.52227334191234 52.77837015339256
    vertex 0.6662307080734046 81.3709353250069 43.45856499999935
    vertex -18.333769291926576 81.37093532500703 43.4585649999986
  endloop
endfacet
facet normal 6.0399872118678e-15 0.7933533402912327 -0.6087614290087239
  outer loop
    vertex 0.6662307080734046 81.3709353250069 43.45856499999935
    vertex -18.333769291925087 88.52227334191234 52.77837015339256
    vertex 0.6662307080748848 88.52227334190535 52.77837015339397
  endloop
endfacet
facet normal 4.617766383215141e-15 0.6087614290087179 -0.7933533402912372
  outer loop
    vertex 0.6662307080748848 88.52227334190535 52.77837015339397
    vertex -18.33376929192467 97.84207849530709 59.92970817029902
    vertex 0.6662307080754789 97.84207849530692 59.92970817029903
  endloop
endfacet
facet normal 4.617766383215141e-15 0.6087614290087179 -0.7933533402912372
  outer loop
    vertex -18.33376929192467 97.84207849530709 59.92970817029902
    vertex 0.6662307080748848 88.52227334190535 52.77837015339397
    vertex -18.333769291925087 88.52227334191234 52.77837015339256
  endloop
endfacet
facet normal 1.953631391057217e-15 0.38268343236509367 -0.9238795325112852
  outer loop
    vertex -18.33376929192467 97.84207849530709 59.92970817029902
    vertex 0.6662307080746432 107.56859929442862 63.95856499999924
    vertex 0.6662307080754789 97.84207849530692 59.92970817029903
  endloop
endfacet
facet normal 1.953631391057217e-15 0.38268343236509367 -0.9238795325112852
  outer loop
    vertex 0.6662307080746432 107.56859929442862 63.95856499999924
    vertex -18.33376929192467 97.84207849530709 59.92970817029902
    vertex 0.6662307080746382 108.69522146569335 64.42522718300718
  endloop
endfacet
facet normal 1.953631391057217e-15 0.38268343236509367 -0.9238795325112852
  outer loop
    vertex 0.6662307080746382 108.69522146569335 64.42522718300718
    vertex -18.33376929192467 97.84207849530709 59.92970817029902
    vertex -18.333769291924597 107.56859929442872 63.958564999999254
  endloop
endfacet
facet normal 1.953631391057217e-15 0.38268343236509367 -0.9238795325112852
  outer loop
    vertex -18.33376929192479 108.69522146569344 64.42522718300584
    vertex 0.6662307080746382 108.69522146569335 64.42522718300718
    vertex -18.333769291924597 107.56859929442872 63.958564999999254
  endloop
endfacet
facet normal -7.582421068490141e-15 -0.9914448613738113 -0.13052619222004538
  outer loop
    vertex -10.333769291924558 163.80874067831334 32.605422029611695
    vertex -18.33376929192593 164.55216350978225 26.958564999998973
    vertex -10.333769291925822 164.55216350978753 26.95856499999826
  endloop
endfacet
facet normal -7.582421068490141e-15 -0.9914448613738113 -0.13052619222004538
  outer loop
    vertex -18.33376929192593 164.55216350978225 26.958564999998973
    vertex -10.333769291924558 163.80874067831334 32.605422029611695
    vertex -18.333769291924664 163.80874067831493 32.60542202961235
  endloop
endfacet
facet normal -7.023481611261076e-15 -0.9238795325112885 -0.38268343236508595
  outer loop
    vertex -10.33376929192439 159.31322166561174 43.458564999998295
    vertex -18.333769291924664 163.80874067831493 32.60542202961235
    vertex -10.333769291924558 163.80874067831334 32.605422029611695
  endloop
endfacet
facet normal -7.023481611261076e-15 -0.9238795325112885 -0.38268343236508595
  outer loop
    vertex -18.333769291924664 163.80874067831493 32.60542202961235
    vertex -10.33376929192439 159.31322166561174 43.458564999998295
    vertex -18.33376929192434 159.31322166560648 43.45856499999899
  endloop
endfacet
facet normal -5.98590348907672e-15 -0.7933533402912377 -0.6087614290087174
  outer loop
    vertex 0.6662307080739763 152.16188364869475 52.77837015339356
    vertex -10.333769291925847 157.61807849531286 45.66771859013044
    vertex 0.6662307080739928 157.61807849530734 45.66771859012971
  endloop
endfacet
facet normal -5.98590348907672e-15 -0.7933533402912377 -0.6087614290087174
  outer loop
    vertex -10.333769291925847 157.61807849531286 45.66771859013044
    vertex 0.6662307080739763 152.16188364869475 52.77837015339356
    vertex -18.333769291926185 152.16188364870163 52.77837015339227
  endloop
endfacet
facet normal -5.98590348907672e-15 -0.7933533402912377 -0.6087614290087174
  outer loop
    vertex -10.333769291925847 157.61807849531286 45.66771859013044
    vertex -18.33376929192434 159.31322166560648 43.45856499999899
    vertex -10.33376929192439 159.31322166561174 43.458564999998295
  endloop
endfacet
facet normal -5.98590348907672e-15 -0.7933533402912377 -0.6087614290087174
  outer loop
    vertex -18.33376929192434 159.31322166560648 43.45856499999899
    vertex -10.333769291925847 157.61807849531286 45.66771859013044
    vertex -18.333769291926185 152.16188364870163 52.77837015339227
  endloop
endfacet
facet normal -4.540395936285031e-15 -0.6087614290087247 -0.7933533402912322
  outer loop
    vertex -18.333769291924607 142.84207849530728 59.92970817029734
    vertex 0.6662307080739763 152.16188364869475 52.77837015339356
    vertex 0.6662307080755517 142.8420784953071 59.929708170298774
  endloop
endfacet
facet normal -4.540395936285031e-15 -0.6087614290087247 -0.7933533402912322
  outer loop
    vertex 0.6662307080739763 152.16188364869475 52.77837015339356
    vertex -18.333769291924607 142.84207849530728 59.92970817029734
    vertex -18.333769291926185 152.16188364870163 52.77837015339227
  endloop
endfacet
facet normal -2.372568875397531e-16 -0.3826834323650823 -0.9238795325112897
  outer loop
    vertex -18.333769291923037 131.98893552492024 64.4252271830058
    vertex 0.6662307080763978 133.11555769618496 63.95856499999907
    vertex 0.6662307080763977 131.98893552492024 64.4252271830072
  endloop
endfacet
facet normal -2.372568875397531e-16 -0.3826834323650823 -0.9238795325112897
  outer loop
    vertex 0.6662307080763978 133.11555769618496 63.95856499999907
    vertex -18.333769291923037 131.98893552492024 64.4252271830058
    vertex 0.6662307080755517 142.8420784953071 59.929708170298774
  endloop
endfacet
facet normal -2.372568875397531e-16 -0.3826834323650823 -0.9238795325112897
  outer loop
    vertex 0.6662307080755517 142.8420784953071 59.929708170298774
    vertex -18.333769291923037 131.98893552492024 64.4252271830058
    vertex -18.333769291923026 133.11555769618496 63.95856499999763
  endloop
endfacet
facet normal -2.372568875397531e-16 -0.3826834323650823 -0.9238795325112897
  outer loop
    vertex -18.333769291924607 142.84207849530728 59.92970817029734
    vertex 0.6662307080755517 142.8420784953071 59.929708170298774
    vertex -18.333769291923026 133.11555769618496 63.95856499999763
  endloop
endfacet
facet normal 1.0 -2.703009347326996e-14 9.544501940931126e-15
  outer loop
    vertex 76.59619570807375 11.36387749530694 30.958565000013767
    vertex 76.59619570807448 53.06387749530653 0.95856499999966
    vertex 76.59619570807557 53.06387749530738 30.958565000013806
  endloop
endfacet
facet normal 1.0 -2.703009347326996e-14 9.544501940931126e-15
  outer loop
    vertex 76.59619570807448 53.06387749530653 0.95856499999966
    vertex 76.59619570807375 11.36387749530694 30.958565000013767
    vertex 76.59619570807283 11.363877495306625 0.958564999999333
  endloop
endfacet
facet normal -1.101666905848699e-12 -1.3007541597980802e-13 -1.0
  outer loop
    vertex 102.61277170806255 148.7079334953067 14.958565000006244
    vertex 105.61277170806194 227.70793349530646 14.958564999996188
    vertex 105.61277170806277 148.70793349530678 14.958565000009571
  endloop
endfacet
facet normal -1.101666905848699e-12 -1.3007541597980802e-13 -1.0
  outer loop
    vertex 105.61277170806194 227.70793349530646 14.958564999996188
    vertex 102.61277170806255 148.7079334953067 14.958565000006244
    vertex 102.61277170806316 227.70793349530663 14.95856499999955
  endloop
endfacet
facet normal 1.0938051811094695e-14 -1.0 1.8047785488308366e-13
  outer loop
    vertex 105.61277170806277 148.70793349530678 14.958565000009571
    vertex 102.61277170807584 148.70793349530956 26.958565000006246
    vertex 102.61277170806255 148.7079334953067 14.958565000006244
  endloop
endfacet
facet normal 1.0938051811094695e-14 -1.0 1.8047785488308366e-13
  outer loop
    vertex 102.61277170807584 148.70793349530956 26.958565000006246
    vertex 105.61277170806277 148.70793349530678 14.958565000009571
    vertex 105.61277170807605 148.7079334953111 30.95856500000915
  endloop
endfacet
facet normal 1.0938051811094695e-14 -1.0 1.8047785488308366e-13
  outer loop
    vertex 102.61277170807584 148.70793349530956 26.958565000006246
    vertex 105.61277170807605 148.7079334953111 30.95856500000915
    vertex 57.25598670807548 148.70793349531075 26.958565000009628
  endloop
endfacet
facet normal 1.0938051811094695e-14 -1.0 1.8047785488308366e-13
  outer loop
    vertex 57.25598670807548 148.70793349531075 26.958565000009628
    vertex 105.61277170807605 148.7079334953111 30.95856500000915
    vertex 57.25598670807548 148.70793349531093 30.958565000009195
  endloop
endfacet
facet normal -1.3535839116229675e-14 -1.0 4.511946372076572e-15
  outer loop
    vertex -9.333769291925258 41.36387749530745 46.95856499999946
    vertex -18.33376929192589 41.363877495307676 36.9585649999993
    vertex -9.333769291925625 41.36387749530641 36.95856499999889
  endloop
endfacet
facet normal -1.3535839116229675e-14 -1.0 4.511946372076572e-15
  outer loop
    vertex -18.33376929192589 41.363877495307676 36.9585649999993
    vertex -9.333769291925258 41.36387749530745 46.95856499999946
    vertex -18.333769291925528 41.36387749530772 46.95856499999858
  endloop
endfacet
facet normal -1.2242701660560075e-14 -1.0 4.000418411261227e-14
  outer loop
    vertex 57.25598670807521 226.70793349531138 30.95856499999572
    vertex -10.333769291925659 226.70793349531095 26.958564999996415
    vertex 57.25598670807521 226.7079334953098 26.958564999996156
  endloop
endfacet
facet normal -1.2242701660560075e-14 -1.0 4.000418411261227e-14
  outer loop
    vertex -10.333769291925659 226.70793349531095 26.958564999996415
    vertex 57.25598670807521 226.70793349531138 30.95856499999572
    vertex 52.25598670807526 226.70793349531138 30.958564999995698
  endloop
endfacet
facet normal -1.2242701660560075e-14 -1.0 4.000418411261227e-14
  outer loop
    vertex 52.25598670807526 226.70793349531138 30.958564999995698
    vertex -10.333769291925467 226.70793349531155 46.95856499999521
    vertex -10.333769291925659 226.70793349531095 26.958564999996415
  endloop
endfacet
facet normal -1.2242701660560075e-14 -1.0 4.000418411261227e-14
  outer loop
    vertex -10.333769291925467 226.70793349531155 46.95856499999521
    vertex 52.25598670807526 226.70793349531138 30.958564999995698
    vertex 52.25598670807474 226.70793349531124 46.95856499999612
  endloop
endfacet
facet normal -2.2559731860383777e-15 -3.4351083709456946e-15 1.0
  outer loop
    vertex -9.333769291926775 61.06607849530692 46.95856499999952
    vertex -18.333769291925528 41.36387749530772 46.95856499999858
    vertex -9.333769291925258 41.36387749530745 46.95856499999946
  endloop
endfacet
facet normal -2.2559731860383777e-15 -3.4351083709456946e-15 1.0
  outer loop
    vertex -18.333769291925528 41.36387749530772 46.95856499999858
    vertex -9.333769291926775 61.06607849530692 46.95856499999952
    vertex -18.333769291926505 61.066078495306826 46.95856499999952
  endloop
endfacet
facet normal 1.0 -1.185787790795777e-15 1.9516034644837597e-15
  outer loop
    vertex -10.33376929192575 174.6180784953128 46.95856499999752
    vertex -10.333769291925659 226.70793349531095 26.958564999996415
    vertex -10.333769291925467 226.70793349531155 46.95856499999521
  endloop
endfacet
facet normal 1.0 -1.185787790795777e-15 1.9516034644837597e-15
  outer loop
    vertex -10.333769291925659 226.70793349531095 26.958564999996415
    vertex -10.33376929192575 174.6180784953128 46.95856499999752
    vertex -10.333769291925822 164.55216350978753 26.95856499999826
  endloop
endfacet
facet normal 1.0 -1.185787790795777e-15 1.9516034644837597e-15
  outer loop
    vertex -10.333769291925822 164.55216350978753 26.95856499999826
    vertex -10.33376929192575 174.6180784953128 46.95856499999752
    vertex -10.333769291926089 174.6180784953128 81.7947259999981
  endloop
endfacet
facet normal 1.0 -1.185787790795777e-15 1.9516034644837597e-15
  outer loop
    vertex -10.333769291925822 164.55216350978753 26.95856499999826
    vertex -10.333769291926089 174.6180784953128 81.7947259999981
    vertex -10.333769291926185 157.61807849531286 81.79472599999946
  endloop
endfacet
facet normal 1.0 -1.185787790795777e-15 1.9516034644837597e-15
  outer loop
    vertex -10.333769291925822 164.55216350978753 26.95856499999826
    vertex -10.333769291926185 157.61807849531286 81.79472599999946
    vertex -10.333769291924558 163.80874067831334 32.605422029611695
  endloop
endfacet
facet normal 1.0 -1.185787790795777e-15 1.9516034644837597e-15
  outer loop
    vertex -10.333769291924558 163.80874067831334 32.605422029611695
    vertex -10.333769291926185 157.61807849531286 81.79472599999946
    vertex -10.33376929192439 159.31322166561174 43.458564999998295
  endloop
endfacet
facet normal 1.0 -1.185787790795777e-15 1.9516034644837597e-15
  outer loop
    vertex -10.33376929192439 159.31322166561174 43.458564999998295
    vertex -10.333769291926185 157.61807849531286 81.79472599999946
    vertex -10.333769291925847 157.61807849531286 45.66771859013044
  endloop
endfacet
facet normal -1.0 5.140192069551648e-15 1.1016669058487075e-12
  outer loop
    vertex 102.61277170806316 227.70793349530663 14.95856499999955
    vertex 102.61277170807584 148.70793349530956 26.958565000006246
    vertex 102.61277170807627 227.70793349530857 26.95856499999954
  endloop
endfacet
facet normal -1.0 5.140192069551648e-15 1.1016669058487075e-12
  outer loop
    vertex 102.61277170807584 148.70793349530956 26.958565000006246
    vertex 102.61277170806316 227.70793349530663 14.95856499999955
    vertex 102.61277170806255 148.7079334953067 14.958565000006244
  endloop
endfacet
facet normal 1.002654749350393e-14 1.0 3.1554436208840472e-30
  outer loop
    vertex -18.333769291925524 174.6180784953076 46.95856499999888
    vertex -10.333769291926089 174.6180784953128 81.7947259999981
    vertex -10.33376929192575 174.6180784953128 46.95856499999752
  endloop
endfacet
facet normal 1.002654749350393e-14 1.0 3.1554436208840472e-30
  outer loop
    vertex -10.333769291926089 174.6180784953128 81.7947259999981
    vertex -18.333769291925524 174.6180784953076 46.95856499999888
    vertex -18.333769291925684 174.61807849530763 81.79472599999941
  endloop
endfacet
facet normal 1.0 -9.02389274415723e-15 2.819966482548086e-15
  outer loop
    vertex 52.25598670807474 226.70793349531124 46.95856499999612
    vertex 52.25598670807472 231.7079334953087 30.958564999995584
    vertex 52.255986708074374 231.70793349530956 46.9585649999961
  endloop
endfacet
facet normal 1.0 -9.02389274415723e-15 2.819966482548086e-15
  outer loop
    vertex 52.25598670807472 231.7079334953087 30.958564999995584
    vertex 52.25598670807474 226.70793349531124 46.95856499999612
    vertex 52.25598670807526 226.70793349531138 30.958564999995698
  endloop
endfacet
facet normal 1.0 -2.9348607791891463e-14 -9.544501940931203e-15
  outer loop
    vertex 59.20828470807597 53.06387749530793 30.95856500001394
    vertex 59.20828470807511 78.97977349530724 0.9585649999996939
    vertex 59.208284708076576 78.97977349530932 30.958565000014104
  endloop
endfacet
facet normal 1.0 -2.9348607791891463e-14 -9.544501940931203e-15
  outer loop
    vertex 59.20828470807511 78.97977349530724 0.9585649999996939
    vertex 59.20828470807597 53.06387749530793 30.95856500001394
    vertex 59.208284708074686 53.06387749530707 0.9585649999997954
  endloop
endfacet
facet normal -8.537281990961905e-15 1.0858838594165682e-15 -1.0
  outer loop
    vertex 71.59619570807251 11.36387749530773 0.9585649999996375
    vertex 71.59619570807452 48.063877495307686 0.9585649999998744
    vertex 76.59619570807283 11.363877495306625 0.958564999999333
  endloop
endfacet
facet normal -8.537281990961905e-15 1.0858838594165682e-15 -1.0
  outer loop
    vertex 76.59619570807448 53.06387749530653 0.95856499999966
    vertex 71.59619570807452 48.063877495307686 0.9585649999998744
    vertex 59.208284708074686 53.06387749530707 0.9585649999997954
  endloop
endfacet
facet normal -8.537281990961905e-15 1.0858838594165682e-15 -1.0
  outer loop
    vertex 71.59619570807452 48.063877495307686 0.9585649999998744
    vertex 76.59619570807448 53.06387749530653 0.95856499999966
    vertex 76.59619570807283 11.363877495306625 0.958564999999333
  endloop
endfacet
facet normal -8.537281990961905e-15 1.0858838594165682e-15 -1.0
  outer loop
    vertex 59.208284708074686 53.06387749530707 0.9585649999997954
    vertex 71.59619570807452 48.063877495307686 0.9585649999998744
    vertex 54.59619570807442 48.06387749530805 0.9585649999996262
  endloop
endfacet
facet normal -8.537281990961905e-15 1.0858838594165682e-15 -1.0
  outer loop
    vertex 59.208284708074686 53.06387749530707 0.9585649999997954
    vertex 54.59619570807442 48.06387749530805 0.9585649999996262
    vertex 54.59619570807485 78.97977349530841 0.9585649999999759
  endloop
endfacet
facet normal -8.537281990961905e-15 1.0858838594165682e-15 -1.0
  outer loop
    vertex 54.59619570807485 78.97977349530841 0.9585649999999759
    vertex 59.20828470807511 78.97977349530724 0.9585649999996939
    vertex 59.208284708074686 53.06387749530707 0.9585649999997954
  endloop
endfacet
facet normal 1.0 -6.015928496102067e-14 4.7494172337625053e-14
  outer loop
    vertex 46.59619570807427 41.363877495307385 36.95856499999993
    vertex 46.59619570807413 31.36387749530715 30.958565000013543
    vertex 46.59619570807459 41.363877495307406 30.95856500001369
  endloop
endfacet
facet normal 1.0 -6.015928496102067e-14 4.7494172337625053e-14
  outer loop
    vertex 46.59619570807413 31.36387749530715 30.958565000013543
    vertex 46.59619570807427 41.363877495307385 36.95856499999993
    vertex 46.59619570807363 31.36387749530704 36.95856499999979
  endloop
endfacet
facet normal -1.0 4.148572610429216e-14 3.326501927575811e-14
  outer loop
    vertex 71.59619570807251 11.36387749530773 0.9585649999996375
    vertex 71.59619570807527 48.06387749530644 26.958564999998192
    vertex 71.59619570807452 48.063877495307686 0.9585649999998744
  endloop
endfacet
facet normal -1.0 4.148572610429216e-14 3.326501927575811e-14
  outer loop
    vertex 71.59619570807527 48.06387749530644 26.958564999998192
    vertex 71.59619570807251 11.36387749530773 0.9585649999996375
    vertex 71.5961957080744 31.363877495308934 26.958564999999947
  endloop
endfacet
facet normal -1.0 4.148572610429216e-14 3.326501927575811e-14
  outer loop
    vertex 71.5961957080744 31.363877495308934 26.958564999999947
    vertex 71.59619570807251 11.36387749530773 0.9585649999996375
    vertex 71.59619570807436 31.36387749530882 30.95856500001371
  endloop
endfacet
facet normal -1.0 4.148572610429216e-14 3.326501927575811e-14
  outer loop
    vertex 71.59619570807436 31.36387749530882 30.95856500001371
    vertex 71.59619570807251 11.36387749530773 0.9585649999996375
    vertex 71.59619570807398 11.363877495308767 30.95856500001368
  endloop
endfacet
facet normal -6.003651091007865e-14 -1.0 -1.1049664584677467e-14
  outer loop
    vertex 76.59619570807375 11.36387749530694 30.958565000013767
    vertex 71.59619570807251 11.36387749530773 0.9585649999996375
    vertex 76.59619570807283 11.363877495306625 0.958564999999333
  endloop
endfacet
facet normal -6.003651091007865e-14 -1.0 -1.1049664584677467e-14
  outer loop
    vertex 71.59619570807251 11.36387749530773 0.9585649999996375
    vertex 76.59619570807375 11.36387749530694 30.958565000013767
    vertex 71.59619570807398 11.363877495308767 30.95856500001368
  endloop
endfacet
facet normal 1.8935144842590877e-14 -1.0 -2.5077422437178373e-14
  outer loop
    vertex 71.59619570807436 31.36387749530882 30.95856500001371
    vertex 46.59619570807413 31.36387749530715 30.958565000013543
    vertex 71.5961957080744 31.363877495308934 26.958564999999947
  endloop
endfacet
facet normal 1.8935144842590877e-14 -1.0 -2.5077422437178373e-14
  outer loop
    vertex 71.5961957080744 31.363877495308934 26.958564999999947
    vertex -18.33376929192611 31.36387749530679 36.95856499999891
    vertex -18.333769291924852 31.363877495306657 26.9585649999992
  endloop
endfacet
facet normal 1.8935144842590877e-14 -1.0 -2.5077422437178373e-14
  outer loop
    vertex -18.33376929192611 31.36387749530679 36.95856499999891
    vertex 71.5961957080744 31.363877495308934 26.958564999999947
    vertex 46.59619570807413 31.36387749530715 30.958565000013543
  endloop
endfacet
facet normal 1.8935144842590877e-14 -1.0 -2.5077422437178373e-14
  outer loop
    vertex -18.33376929192611 31.36387749530679 36.95856499999891
    vertex 46.59619570807413 31.36387749530715 30.958565000013543
    vertex 46.59619570807363 31.36387749530704 36.95856499999979
  endloop
endfacet
facet normal -1.4182598823819327e-14 -9.728784533431655e-15 1.0
  outer loop
    vertex -9.333769291925625 41.36387749530641 36.95856499999889
    vertex 46.59619570807363 31.36387749530704 36.95856499999979
    vertex 46.59619570807427 41.363877495307385 36.95856499999993
  endloop
endfacet
facet normal -1.4182598823819327e-14 -9.728784533431655e-15 1.0
  outer loop
    vertex 46.59619570807363 31.36387749530704 36.95856499999979
    vertex -9.333769291925625 41.36387749530641 36.95856499999889
    vertex -18.33376929192611 31.36387749530679 36.95856499999891
  endloop
endfacet
facet normal -1.4182598823819327e-14 -9.728784533431655e-15 1.0
  outer loop
    vertex -18.33376929192611 31.36387749530679 36.95856499999891
    vertex -9.333769291925625 41.36387749530641 36.95856499999889
    vertex -18.33376929192589 41.363877495307676 36.9585649999993
  endloop
endfacet
facet normal -4.4089609588022815e-15 1.6483568654649864e-13 1.0
  outer loop
    vertex 105.61277170807523 227.70793349531155 30.958564999996
    vertex 57.25598670807548 148.70793349531093 30.958565000009195
    vertex 105.61277170807605 148.7079334953111 30.95856500000915
  endloop
endfacet
facet normal -4.4089609588022815e-15 1.6483568654649864e-13 1.0
  outer loop
    vertex 57.25598670807548 148.70793349531093 30.958565000009195
    vertex 105.61277170807523 227.70793349531155 30.958564999996
    vertex 80.50424470807494 227.70793349530658 30.958564999996124
  endloop
endfacet
facet normal -4.4089609588022815e-15 1.6483568654649864e-13 1.0
  outer loop
    vertex 50.25598670807667 242.70793349530624 30.95856499999497
    vertex 80.50424470807494 227.70793349530658 30.958564999996124
    vertex 80.50424470807675 242.70793349530638 30.95856499999519
  endloop
endfacet
facet normal -4.4089609588022815e-15 1.6483568654649864e-13 1.0
  outer loop
    vertex 80.50424470807494 227.70793349530658 30.958564999996124
    vertex 50.25598670807667 242.70793349530624 30.95856499999497
    vertex 57.25598670807521 226.70793349531138 30.95856499999572
  endloop
endfacet
facet normal -4.4089609588022815e-15 1.6483568654649864e-13 1.0
  outer loop
    vertex 80.50424470807494 227.70793349530658 30.958564999996124
    vertex 57.25598670807521 226.70793349531138 30.95856499999572
    vertex 57.25598670807548 148.70793349531093 30.958565000009195
  endloop
endfacet
facet normal -4.4089609588022815e-15 1.6483568654649864e-13 1.0
  outer loop
    vertex 57.25598670807521 226.70793349531138 30.95856499999572
    vertex 50.25598670807667 242.70793349530624 30.95856499999497
    vertex 52.25598670807472 231.7079334953087 30.958564999995584
  endloop
endfacet
facet normal -4.4089609588022815e-15 1.6483568654649864e-13 1.0
  outer loop
    vertex 57.25598670807521 226.70793349531138 30.95856499999572
    vertex 52.25598670807472 231.7079334953087 30.958564999995584
    vertex 52.25598670807526 226.70793349531138 30.958564999995698
  endloop
endfacet
facet normal -4.4089609588022815e-15 1.6483568654649864e-13 1.0
  outer loop
    vertex 52.25598670807472 231.7079334953087 30.958564999995584
    vertex 50.25598670807667 242.70793349530624 30.95856499999497
    vertex 50.25598670807666 235.7079334953063 30.958564999995126
  endloop
endfacet
facet normal -4.4089609588022815e-15 1.6483568654649864e-13 1.0
  outer loop
    vertex 50.25598670807666 235.7079334953063 30.958564999995126
    vertex -18.333769291924845 231.70793349530604 30.95856499999477
    vertex 52.25598670807472 231.7079334953087 30.958564999995584
  endloop
endfacet
facet normal -4.4089609588022815e-15 1.6483568654649864e-13 1.0
  outer loop
    vertex -18.333769291924845 231.70793349530604 30.95856499999477
    vertex 50.25598670807666 235.7079334953063 30.958564999995126
    vertex -18.33376929192302 235.7079334953062 30.958564999994618
  endloop
endfacet
facet normal -1.114716162513042e-13 -1.0 1.0412183935568018e-14
  outer loop
    vertex 71.59619570807452 48.063877495307686 0.9585649999998744
    vertex 54.59619570807553 48.063877495309825 26.958565000000192
    vertex 54.59619570807442 48.06387749530805 0.9585649999996262
  endloop
endfacet
facet normal -1.114716162513042e-13 -1.0 1.0412183935568018e-14
  outer loop
    vertex 54.59619570807553 48.063877495309825 26.958565000000192
    vertex 71.59619570807452 48.063877495307686 0.9585649999998744
    vertex 71.59619570807527 48.06387749530644 26.958564999998192
  endloop
endfacet
facet normal -5.9942560620798906e-15 1.0 3.1972070318686e-14
  outer loop
    vertex -9.333769291925625 41.36387749530641 36.95856499999889
    vertex 46.59619570807464 41.36387749530747 26.958564999999922
    vertex -9.33376929192491 41.36387749530727 26.9585649999987
  endloop
endfacet
facet normal -5.9942560620798906e-15 1.0 3.1972070318686e-14
  outer loop
    vertex 46.59619570807464 41.36387749530747 26.958564999999922
    vertex -9.333769291925625 41.36387749530641 36.95856499999889
    vertex 46.59619570807459 41.363877495307406 30.95856500001369
  endloop
endfacet
facet normal -5.9942560620798906e-15 1.0 3.1972070318686e-14
  outer loop
    vertex 46.59619570807459 41.363877495307406 30.95856500001369
    vertex -9.333769291925625 41.36387749530641 36.95856499999889
    vertex 46.59619570807427 41.363877495307385 36.95856499999993
  endloop
endfacet
facet normal 2.8543630165144074e-14 1.0 -5.206091967780825e-15
  outer loop
    vertex 59.208284708074686 53.06387749530707 0.9585649999997954
    vertex 76.59619570807557 53.06387749530738 30.958565000013806
    vertex 76.59619570807448 53.06387749530653 0.95856499999966
  endloop
endfacet
facet normal 2.8543630165144074e-14 1.0 -5.206091967780825e-15
  outer loop
    vertex 76.59619570807557 53.06387749530738 30.958565000013806
    vertex 59.208284708074686 53.06387749530707 0.9585649999997954
    vertex 59.20828470807597 53.06387749530793 30.95856500001394
  endloop
endfacet
facet normal -1.0 2.9069465001967316e-14 4.821740106663139e-14
  outer loop
    vertex 54.59619570807442 48.06387749530805 0.9585649999996262
    vertex 54.59619570807553 48.063877495309825 26.958565000000192
    vertex 54.59619570807485 78.97977349530841 0.9585649999999759
  endloop
endfacet
facet normal -1.0 2.9069465001967316e-14 4.821740106663139e-14
  outer loop
    vertex 54.59619570807485 78.97977349530841 0.9585649999999759
    vertex 54.59619570807553 48.06387749530969 30.95856500001396
    vertex 54.59619570807668 78.9797734953097 30.958565000014104
  endloop
endfacet
facet normal -1.0 2.9069465001967316e-14 4.821740106663139e-14
  outer loop
    vertex 54.59619570807553 48.06387749530969 30.95856500001396
    vertex 54.59619570807485 78.97977349530841 0.9585649999999759
    vertex 54.59619570807553 48.063877495309825 26.958565000000192
  endloop
endfacet
facet normal 1.0 8.949649100623209e-15 -1.6001626685747472e-14
  outer loop
    vertex 80.50424470807675 242.70793349530638 30.95856499999519
    vertex 80.50424470807499 239.70793349530567 26.958564999995897
    vertex 80.50424470807295 242.70793349530553 1.6456669999953617
  endloop
endfacet
facet normal 1.0 8.949649100623209e-15 -1.6001626685747472e-14
  outer loop
    vertex 80.50424470807499 239.70793349530567 26.958564999995897
    vertex 80.50424470807675 242.70793349530638 30.95856499999519
    vertex 80.50424470807494 227.70793349530658 30.958564999996124
  endloop
endfacet
facet normal 1.0 8.949649100623209e-15 -1.6001626685747472e-14
  outer loop
    vertex 80.50424470807499 239.70793349530567 26.958564999995897
    vertex 80.50424470807494 227.70793349530658 30.958564999996124
    vertex 80.50424470807494 227.70793349530604 26.958564999996312
  endloop
endfacet
facet normal 1.0 8.949649100623209e-15 -1.6001626685747472e-14
  outer loop
    vertex 80.50424470807386 239.7079334953053 1.6456669999953617
    vertex 80.50424470807295 242.70793349530553 1.6456669999953617
    vertex 80.50424470807499 239.70793349530567 26.958564999995897
  endloop
endfacet
facet normal 1.0 3.7527894968545893e-14 2.5650130828824563e-14
  outer loop
    vertex -9.33376929192617 75.06607849530734 26.958564999998757
    vertex -9.333769291926775 61.06607849530692 46.95856499999952
    vertex -9.33376929192491 41.36387749530727 26.9585649999987
  endloop
endfacet
facet normal 1.0 3.7527894968545893e-14 2.5650130828824563e-14
  outer loop
    vertex -9.333769291926775 61.06607849530692 46.95856499999952
    vertex -9.33376929192617 75.06607849530734 26.958564999998757
    vertex -9.33376929192758 75.06607849530748 81.79472599999947
  endloop
endfacet
facet normal 1.0 3.7527894968545893e-14 2.5650130828824563e-14
  outer loop
    vertex -9.333769291926775 61.06607849530692 46.95856499999952
    vertex -9.33376929192758 75.06607849530748 81.79472599999947
    vertex -9.333769291927114 61.06607849530759 81.79472599999954
  endloop
endfacet
facet normal 1.0 3.7527894968545893e-14 2.5650130828824563e-14
  outer loop
    vertex -9.33376929192491 41.36387749530727 26.9585649999987
    vertex -9.333769291926775 61.06607849530692 46.95856499999952
    vertex -9.333769291925258 41.36387749530745 46.95856499999946
  endloop
endfacet
facet normal 1.0 3.7527894968545893e-14 2.5650130828824563e-14
  outer loop
    vertex -9.33376929192491 41.36387749530727 26.9585649999987
    vertex -9.333769291925258 41.36387749530745 46.95856499999946
    vertex -9.333769291925625 41.36387749530641 36.95856499999889
  endloop
endfacet
facet normal 2.934860779189143e-14 1.0 -1.735363989260625e-15
  outer loop
    vertex 54.59619570807485 78.97977349530841 0.9585649999999759
    vertex 59.208284708076576 78.97977349530932 30.958565000014104
    vertex 59.20828470807511 78.97977349530724 0.9585649999996939
  endloop
endfacet
facet normal 2.934860779189143e-14 1.0 -1.735363989260625e-15
  outer loop
    vertex 59.208284708076576 78.97977349530932 30.958565000014104
    vertex 54.59619570807485 78.97977349530841 0.9585649999999759
    vertex 54.59619570807668 78.9797734953097 30.958565000014104
  endloop
endfacet
facet normal -3.007964248051095e-15 -1.0 8.439425908310291e-16
  outer loop
    vertex 0.6662307080737124 75.06607849530744 26.958564999999382
    vertex -9.33376929192758 75.06607849530748 81.79472599999947
    vertex -9.33376929192617 75.06607849530734 26.958564999998757
  endloop
endfacet
facet normal -3.007964248051095e-15 -1.0 8.439425908310291e-16
  outer loop
    vertex -9.33376929192758 75.06607849530748 81.79472599999947
    vertex 0.6662307080737124 75.06607849530744 26.958564999999382
    vertex 0.6662307080724811 75.0660784953076 81.79472599999936
  endloop
endfacet
facet normal 8.045789410991e-15 -8.154381761883789e-15 -1.0
  outer loop
    vertex 71.5961957080744 31.363877495308934 26.958564999999947
    vertex 54.59619570807553 48.063877495309825 26.958565000000192
    vertex 71.59619570807527 48.06387749530644 26.958564999998192
  endloop
endfacet
facet normal 8.045789410991e-15 -8.154381761883789e-15 -1.0
  outer loop
    vertex 54.59619570807553 48.063877495309825 26.958565000000192
    vertex 71.5961957080744 31.363877495308934 26.958564999999947
    vertex 54.596195708075456 41.36387749530801 26.958565000000096
  endloop
endfacet
facet normal 8.045789410991e-15 -8.154381761883789e-15 -1.0
  outer loop
    vertex 54.596195708075456 41.36387749530801 26.958565000000096
    vertex 71.5961957080744 31.363877495308934 26.958564999999947
    vertex -18.333769291924852 31.363877495306657 26.9585649999992
  endloop
endfacet
facet normal 8.045789410991e-15 -8.154381761883789e-15 -1.0
  outer loop
    vertex 54.596195708075456 41.36387749530801 26.958565000000096
    vertex -18.333769291924852 31.363877495306657 26.9585649999992
    vertex 46.59619570807464 41.36387749530747 26.958564999999922
  endloop
endfacet
facet normal 8.045789410991e-15 -8.154381761883789e-15 -1.0
  outer loop
    vertex 46.59619570807464 41.36387749530747 26.958564999999922
    vertex -18.333769291924852 31.363877495306657 26.9585649999992
    vertex -9.33376929192491 41.36387749530727 26.9585649999987
  endloop
endfacet
facet normal 8.045789410991e-15 -8.154381761883789e-15 -1.0
  outer loop
    vertex -9.33376929192491 41.36387749530727 26.9585649999987
    vertex -18.333769291924852 31.363877495306657 26.9585649999992
    vertex -9.33376929192617 75.06607849530734 26.958564999998757
  endloop
endfacet
facet normal 8.045789410991e-15 -8.154381761883789e-15 -1.0
  outer loop
    vertex 0.6662307080737124 75.06607849530744 26.958564999999382
    vertex -18.333769291925154 76.13199348083097 26.958564999998664
    vertex 0.6662307080748011 76.13199348083079 26.958564999998675
  endloop
endfacet
facet normal 8.045789410991e-15 -8.154381761883789e-15 -1.0
  outer loop
    vertex -18.333769291925154 76.13199348083097 26.958564999998664
    vertex 0.6662307080737124 75.06607849530744 26.958564999999382
    vertex -9.33376929192617 75.06607849530734 26.958564999998757
  endloop
endfacet
facet normal 8.045789410991e-15 -8.154381761883789e-15 -1.0
  outer loop
    vertex -18.333769291925154 76.13199348083097 26.958564999998664
    vertex -9.33376929192617 75.06607849530734 26.958564999998757
    vertex -18.333769291924852 31.363877495306657 26.9585649999992
  endloop
endfacet
facet normal 1.0 -3.424730378805776e-15 -3.601402977711688e-15
  outer loop
    vertex 105.61277170807605 148.7079334953111 30.95856500000915
    vertex 105.61277170806194 227.70793349530646 14.958564999996188
    vertex 105.61277170807523 227.70793349531155 30.958564999996
  endloop
endfacet
facet normal 1.0 -3.424730378805776e-15 -3.601402977711688e-15
  outer loop
    vertex 105.61277170806194 227.70793349530646 14.958564999996188
    vertex 105.61277170807605 148.7079334953111 30.95856500000915
    vertex 105.61277170806277 148.70793349530678 14.958565000009571
  endloop
endfacet
facet normal -4.138985721335361e-16 4.3628592665747114e-14 1.0
  outer loop
    vertex 52.255986708074374 231.70793349530956 46.9585649999961
    vertex -10.333769291925467 226.70793349531155 46.95856499999521
    vertex 52.25598670807474 226.70793349531124 46.95856499999612
  endloop
endfacet
facet normal -4.138985721335361e-16 4.3628592665747114e-14 1.0
  outer loop
    vertex -10.333769291925467 226.70793349531155 46.95856499999521
    vertex 52.255986708074374 231.70793349530956 46.9585649999961
    vertex -18.333769291925577 231.7079334953065 46.95856499999616
  endloop
endfacet
facet normal -4.138985721335361e-16 4.3628592665747114e-14 1.0
  outer loop
    vertex -10.333769291925467 226.70793349531155 46.95856499999521
    vertex -18.333769291925577 231.7079334953065 46.95856499999616
    vertex -10.33376929192575 174.6180784953128 46.95856499999752
  endloop
endfacet
facet normal -4.138985721335361e-16 4.3628592665747114e-14 1.0
  outer loop
    vertex -10.33376929192575 174.6180784953128 46.95856499999752
    vertex -18.333769291925577 231.7079334953065 46.95856499999616
    vertex -18.333769291925524 174.6180784953076 46.95856499999888
  endloop
endfacet
facet normal -1.0620151357156623e-13 1.0 -9.384097972742602e-14
  outer loop
    vertex 80.50424470807494 227.70793349530658 30.958564999996124
    vertex 102.61277170807627 227.70793349530857 26.95856499999954
    vertex 80.50424470807494 227.70793349530604 26.958564999996312
  endloop
endfacet
facet normal -1.0620151357156623e-13 1.0 -9.384097972742602e-14
  outer loop
    vertex 102.61277170807627 227.70793349530857 26.95856499999954
    vertex 80.50424470807494 227.70793349530658 30.958564999996124
    vertex 105.61277170807523 227.70793349531155 30.958564999996
  endloop
endfacet
facet normal -1.0620151357156623e-13 1.0 -9.384097972742602e-14
  outer loop
    vertex 102.61277170806316 227.70793349530663 14.95856499999955
    vertex 105.61277170807523 227.70793349531155 30.958564999996
    vertex 105.61277170806194 227.70793349530646 14.958564999996188
  endloop
endfacet
facet normal -1.0620151357156623e-13 1.0 -9.384097972742602e-14
  outer loop
    vertex 105.61277170807523 227.70793349531155 30.958564999996
    vertex 102.61277170806316 227.70793349530663 14.95856499999955
    vertex 102.61277170807627 227.70793349530857 26.95856499999954
  endloop
endfacet
facet normal 1.6799727752359827e-15 1.0 -4.995649178341943e-15
  outer loop
    vertex -10.333769291925847 157.61807849531286 45.66771859013044
    vertex 0.66623070807312 157.61807849531183 78.79472599999905
    vertex 0.6662307080739928 157.61807849530734 45.66771859012971
  endloop
endfacet
facet normal 1.6799727752359827e-15 1.0 -4.995649178341943e-15
  outer loop
    vertex 0.66623070807312 157.61807849531183 78.79472599999905
    vertex -10.333769291925847 157.61807849531286 45.66771859013044
    vertex -10.333769291926185 157.61807849531286 81.79472599999946
  endloop
endfacet
facet normal 1.6799727752359827e-15 1.0 -4.995649178341943e-15
  outer loop
    vertex 0.66623070807312 157.61807849531183 78.79472599999905
    vertex -10.333769291926185 157.61807849531286 81.79472599999946
    vertex 51.08454670807379 157.61807849530803 81.7947259999937
  endloop
endfacet
facet normal 1.6799727752359827e-15 1.0 -4.995649178341943e-15
  outer loop
    vertex 46.084546708071855 157.61807849531152 63.7947259999939
    vertex 51.08454670807379 157.61807849530803 81.7947259999937
    vertex 51.0845467080718 157.6180784953123 63.79472599999337
  endloop
endfacet
facet normal 1.6799727752359827e-15 1.0 -4.995649178341943e-15
  outer loop
    vertex 51.08454670807379 157.61807849530803 81.7947259999937
    vertex 46.084546708071855 157.61807849531152 63.7947259999939
    vertex 46.084546708073155 157.6180784953115 78.79472599999387
  endloop
endfacet
facet normal 1.6799727752359827e-15 1.0 -4.995649178341943e-15
  outer loop
    vertex 51.08454670807379 157.61807849530803 81.7947259999937
    vertex 46.084546708073155 157.6180784953115 78.79472599999387
    vertex 0.66623070807312 157.61807849531183 78.79472599999905
  endloop
endfacet
facet normal 1.0 -9.536669057694967e-15 -9.45823240928138e-14
  outer loop
    vertex 51.08454670807379 157.61807849530803 81.7947259999937
    vertex 51.0845467080713 77.06607849530796 63.79472599999371
    vertex 51.0845467080718 157.6180784953123 63.79472599999337
  endloop
endfacet
facet normal 1.0 -9.536669057694967e-15 -9.45823240928138e-14
  outer loop
    vertex 51.0845467080713 77.06607849530796 63.79472599999371
    vertex 51.08454670807379 157.61807849530803 81.7947259999937
    vertex 51.08454670807241 77.06607849530815 81.79472599999372
  endloop
endfacet
facet normal -1.1275768172853217e-13 -4.481027283817471e-15 -1.0
  outer loop
    vertex 46.08454670807251 77.06607849530707 78.79472599999431
    vertex 0.66623070807312 157.61807849531183 78.79472599999905
    vertex 46.084546708073155 157.6180784953115 78.79472599999387
  endloop
endfacet
facet normal -1.1275768172853217e-13 -4.481027283817471e-15 -1.0
  outer loop
    vertex 0.66623070807312 157.61807849531183 78.79472599999905
    vertex 46.08454670807251 77.06607849530707 78.79472599999431
    vertex 0.6662307080725015 77.0660784953075 78.79472599999922
  endloop
endfacet
facet normal -3.5340683282166527e-16 -1.0 -2.1225624410937445e-15
  outer loop
    vertex 51.08454670807241 77.06607849530815 81.79472599999372
    vertex 46.08454670807119 77.06607849530718 63.79472599999432
    vertex 51.0845467080713 77.06607849530796 63.79472599999371
  endloop
endfacet
facet normal -3.5340683282166527e-16 -1.0 -2.1225624410937445e-15
  outer loop
    vertex 46.08454670807119 77.06607849530718 63.79472599999432
    vertex 51.08454670807241 77.06607849530815 81.79472599999372
    vertex 46.08454670807251 77.06607849530707 78.79472599999431
  endloop
endfacet
facet normal -3.5340683282166527e-16 -1.0 -2.1225624410937445e-15
  outer loop
    vertex 46.08454670807251 77.06607849530707 78.79472599999431
    vertex 51.08454670807241 77.06607849530815 81.79472599999372
    vertex 0.6662307080725015 77.0660784953075 78.79472599999922
  endloop
endfacet
facet normal -3.5340683282166527e-16 -1.0 -2.1225624410937445e-15
  outer loop
    vertex 0.6662307080725015 77.0660784953075 78.79472599999922
    vertex 51.08454670807241 77.06607849530815 81.79472599999372
    vertex 0.666230708072492 77.0660784953076 81.79472599999922
  endloop
endfacet
facet normal 1.0 -1.626973458033686e-14 2.5758886478337372e-14
  outer loop
    vertex 0.6662307080724811 75.0660784953076 81.79472599999936
    vertex 0.6662307080725015 77.0660784953075 78.79472599999922
    vertex 0.666230708072492 77.0660784953076 81.79472599999922
  endloop
endfacet
facet normal 1.0 -1.626973458033686e-14 2.5758886478337372e-14
  outer loop
    vertex 0.6662307080725015 77.0660784953075 78.79472599999922
    vertex 0.6662307080724811 75.0660784953076 81.79472599999936
    vertex 0.666230708073737 76.87541631229851 32.605422029612754
  endloop
endfacet
facet normal 1.0 -1.626973458033686e-14 2.5758886478337372e-14
  outer loop
    vertex 0.666230708073737 76.87541631229851 32.605422029612754
    vertex 0.6662307080724811 75.0660784953076 81.79472599999936
    vertex 0.6662307080748011 76.13199348083079 26.958564999998675
  endloop
endfacet
facet normal 1.0 -1.626973458033686e-14 2.5758886478337372e-14
  outer loop
    vertex 0.6662307080748011 76.13199348083079 26.958564999998675
    vertex 0.6662307080724811 75.0660784953076 81.79472599999936
    vertex 0.6662307080737124 75.06607849530744 26.958564999999382
  endloop
endfacet
facet normal 1.0 -1.626973458033686e-14 2.5758886478337372e-14
  outer loop
    vertex 0.66623070807312 157.61807849531183 78.79472599999905
    vertex 0.6662307080739763 152.16188364869475 52.77837015339356
    vertex 0.6662307080739928 157.61807849530734 45.66771859012971
  endloop
endfacet
facet normal 1.0 -1.626973458033686e-14 2.5758886478337372e-14
  outer loop
    vertex 0.6662307080739763 152.16188364869475 52.77837015339356
    vertex 0.66623070807312 157.61807849531183 78.79472599999905
    vertex 0.6662307080755517 142.8420784953071 59.929708170298774
  endloop
endfacet
facet normal 1.0 -1.626973458033686e-14 2.5758886478337372e-14
  outer loop
    vertex 0.6662307080755517 142.8420784953071 59.929708170298774
    vertex 0.66623070807312 157.61807849531183 78.79472599999905
    vertex 0.6662307080763977 131.98893552492024 64.4252271830072
  endloop
endfacet
facet normal 1.0 -1.626973458033686e-14 2.5758886478337372e-14
  outer loop
    vertex 0.6662307080763977 131.98893552492024 64.4252271830072
    vertex 0.66623070807312 157.61807849531183 78.79472599999905
    vertex 0.6662307080725015 77.0660784953075 78.79472599999922
  endloop
endfacet
facet normal 1.0 -1.626973458033686e-14 2.5758886478337372e-14
  outer loop
    vertex 0.6662307080755517 142.8420784953071 59.929708170298774
    vertex 0.6662307080763977 131.98893552492024 64.4252271830072
    vertex 0.6662307080763978 133.11555769618496 63.95856499999907
  endloop
endfacet
facet normal 1.0 -1.626973458033686e-14 2.5758886478337372e-14
  outer loop
    vertex 0.6662307080763977 131.98893552492024 64.4252271830072
    vertex 0.6662307080725015 77.0660784953075 78.79472599999922
    vertex 0.6662307080745249 120.34207849530675 65.9585649999978
  endloop
endfacet
facet normal 1.0 -1.626973458033686e-14 2.5758886478337372e-14
  outer loop
    vertex 0.6662307080745249 120.34207849530675 65.9585649999978
    vertex 0.6662307080725015 77.0660784953075 78.79472599999922
    vertex 0.6662307080746382 108.69522146569335 64.42522718300718
  endloop
endfacet
facet normal 1.0 -1.626973458033686e-14 2.5758886478337372e-14
  outer loop
    vertex 0.6662307080746382 108.69522146569335 64.42522718300718
    vertex 0.6662307080725015 77.0660784953075 78.79472599999922
    vertex 0.6662307080746432 107.56859929442862 63.95856499999924
  endloop
endfacet
facet normal 1.0 -1.626973458033686e-14 2.5758886478337372e-14
  outer loop
    vertex 0.6662307080746432 107.56859929442862 63.95856499999924
    vertex 0.6662307080725015 77.0660784953075 78.79472599999922
    vertex 0.6662307080754789 97.84207849530692 59.92970817029903
  endloop
endfacet
facet normal 1.0 -1.626973458033686e-14 2.5758886478337372e-14
  outer loop
    vertex 0.6662307080754789 97.84207849530692 59.92970817029903
    vertex 0.6662307080725015 77.0660784953075 78.79472599999922
    vertex 0.6662307080748848 88.52227334190535 52.77837015339397
  endloop
endfacet
facet normal 1.0 -1.626973458033686e-14 2.5758886478337372e-14
  outer loop
    vertex 0.6662307080748848 88.52227334190535 52.77837015339397
    vertex 0.6662307080725015 77.0660784953075 78.79472599999922
    vertex 0.6662307080734046 81.3709353250069 43.45856499999935
  endloop
endfacet
facet normal 1.0 -1.626973458033686e-14 2.5758886478337372e-14
  outer loop
    vertex 0.6662307080734046 81.3709353250069 43.45856499999935
    vertex 0.6662307080725015 77.0660784953075 78.79472599999922
    vertex 0.666230708073737 76.87541631229851 32.605422029612754
  endloop
endfacet
facet normal -1.1279865930191584e-13 -4.481027283817489e-15 -1.0
  outer loop
    vertex 51.0845467080713 77.06607849530796 63.79472599999371
    vertex 46.084546708071855 157.61807849531152 63.7947259999939
    vertex 51.0845467080718 157.6180784953123 63.79472599999337
  endloop
endfacet
facet normal -1.1279865930191584e-13 -4.481027283817489e-15 -1.0
  outer loop
    vertex 46.084546708071855 157.61807849531152 63.7947259999939
    vertex 51.0845467080713 77.06607849530796 63.79472599999371
    vertex 46.08454670807119 77.06607849530718 63.79472599999432
  endloop
endfacet
facet normal -3.907551732244355e-14 1.0 -4.511946372076496e-14
  outer loop
    vertex -18.333769291925577 231.7079334953065 46.95856499999616
    vertex 52.25598670807472 231.7079334953087 30.958564999995584
    vertex -18.333769291924845 231.70793349530604 30.95856499999477
  endloop
endfacet
facet normal -3.907551732244355e-14 1.0 -4.511946372076496e-14
  outer loop
    vertex 52.25598670807472 231.7079334953087 30.958564999995584
    vertex -18.333769291925577 231.7079334953065 46.95856499999616
    vertex 52.255986708074374 231.70793349530956 46.9585649999961
  endloop
endfacet
facet normal -1.0 -1.09380518110947e-14 2.714371767252349e-27
  outer loop
    vertex 57.25598670807521 226.7079334953098 26.958564999996156
    vertex 57.25598670807548 148.70793349531093 30.958565000009195
    vertex 57.25598670807521 226.70793349531138 30.95856499999572
  endloop
endfacet
facet normal -1.0 -1.09380518110947e-14 2.714371767252349e-27
  outer loop
    vertex 57.25598670807548 148.70793349531093 30.958565000009195
    vertex 57.25598670807521 226.7079334953098 26.958564999996156
    vertex 57.25598670807548 148.70793349531075 26.958565000009628
  endloop
endfacet
facet normal -1.0 5.32121989953444e-15 1.1279865930191585e-13
  outer loop
    vertex 46.08454670807119 77.06607849530718 63.79472599999432
    vertex 46.084546708073155 157.6180784953115 78.79472599999387
    vertex 46.084546708071855 157.61807849531152 63.7947259999939
  endloop
endfacet
facet normal -1.0 5.32121989953444e-15 1.1279865930191585e-13
  outer loop
    vertex 46.084546708073155 157.6180784953115 78.79472599999387
    vertex 46.08454670807119 77.06607849530718 63.79472599999432
    vertex 46.08454670807251 77.06607849530707 78.79472599999431
  endloop
endfacet
facet normal -7.895906151133194e-14 1.0 -2.255973186030556e-14
  outer loop
    vertex 46.59619570807459 41.363877495307406 30.95856500001369
    vertex 54.596195708075456 41.36387749530801 26.958565000000096
    vertex 46.59619570807464 41.36387749530747 26.958564999999922
  endloop
endfacet
facet normal -7.895906151133194e-14 1.0 -2.255973186030556e-14
  outer loop
    vertex 54.596195708075456 41.36387749530801 26.958565000000096
    vertex 46.59619570807459 41.363877495307406 30.95856500001369
    vertex 54.596195708075456 41.363877495307875 30.958565000013856
  endloop
endfacet
facet normal -1.0 1.7007999615312487e-31 0.0
  outer loop
    vertex 54.596195708075456 41.36387749530801 26.958565000000096
    vertex 54.59619570807553 48.06387749530969 30.95856500001396
    vertex 54.59619570807553 48.063877495309825 26.958565000000192
  endloop
endfacet
facet normal -1.0 1.7007999615312487e-31 0.0
  outer loop
    vertex 54.59619570807553 48.06387749530969 30.95856500001396
    vertex 54.596195708075456 41.36387749530801 26.958565000000096
    vertex 54.596195708075456 41.363877495307875 30.958565000013856
  endloop
endfacet
facet normal -4.478583642865646e-15 -7.310970079193978e-15 1.0
  outer loop
    vertex 54.59619570807668 78.9797734953097 30.958565000014104
    vertex 59.20828470807597 53.06387749530793 30.95856500001394
    vertex 59.208284708076576 78.97977349530932 30.958565000014104
  endloop
endfacet
facet normal -4.478583642865646e-15 -7.310970079193978e-15 1.0
  outer loop
    vertex 76.59619570807557 53.06387749530738 30.958565000013806
    vertex 71.59619570807436 31.36387749530882 30.95856500001371
    vertex 76.59619570807375 11.36387749530694 30.958565000013767
  endloop
endfacet
facet normal -4.478583642865646e-15 -7.310970079193978e-15 1.0
  outer loop
    vertex 71.59619570807436 31.36387749530882 30.95856500001371
    vertex 76.59619570807557 53.06387749530738 30.958565000013806
    vertex 59.20828470807597 53.06387749530793 30.95856500001394
  endloop
endfacet
facet normal -4.478583642865646e-15 -7.310970079193978e-15 1.0
  outer loop
    vertex 71.59619570807436 31.36387749530882 30.95856500001371
    vertex 59.20828470807597 53.06387749530793 30.95856500001394
    vertex 54.596195708075456 41.363877495307875 30.958565000013856
  endloop
endfacet
facet normal -4.478583642865646e-15 -7.310970079193978e-15 1.0
  outer loop
    vertex 71.59619570807436 31.36387749530882 30.95856500001371
    vertex 54.596195708075456 41.363877495307875 30.958565000013856
    vertex 46.59619570807413 31.36387749530715 30.958565000013543
  endloop
endfacet
facet normal -4.478583642865646e-15 -7.310970079193978e-15 1.0
  outer loop
    vertex 54.596195708075456 41.363877495307875 30.958565000013856
    vertex 59.20828470807597 53.06387749530793 30.95856500001394
    vertex 54.59619570807668 78.9797734953097 30.958565000014104
  endloop
endfacet
facet normal -4.478583642865646e-15 -7.310970079193978e-15 1.0
  outer loop
    vertex 54.596195708075456 41.363877495307875 30.958565000013856
    vertex 54.59619570807668 78.9797734953097 30.958565000014104
    vertex 54.59619570807553 48.06387749530969 30.95856500001396
  endloop
endfacet
facet normal -4.478583642865646e-15 -7.310970079193978e-15 1.0
  outer loop
    vertex 46.59619570807413 31.36387749530715 30.958565000013543
    vertex 54.596195708075456 41.363877495307875 30.958565000013856
    vertex 46.59619570807459 41.363877495307406 30.95856500001369
  endloop
endfacet
facet normal -4.478583642865646e-15 -7.310970079193978e-15 1.0
  outer loop
    vertex 71.59619570807398 11.363877495308767 30.95856500001368
    vertex 76.59619570807375 11.36387749530694 30.958565000013767
    vertex 71.59619570807436 31.36387749530882 30.95856500001371
  endloop
endfacet
facet normal 3.4083918470110574e-14 -1.0491181533079083e-13 -1.0
  outer loop
    vertex -18.33376929192593 164.55216350978225 26.958564999998973
    vertex -10.333769291925659 226.70793349531095 26.958564999996415
    vertex -10.333769291925822 164.55216350978753 26.95856499999826
  endloop
endfacet
facet normal 3.4083918470110574e-14 -1.0491181533079083e-13 -1.0
  outer loop
    vertex -10.333769291925659 226.70793349531095 26.958564999996415
    vertex -18.33376929192593 164.55216350978225 26.958564999998973
    vertex -18.33376929192302 235.70793349530612 26.958564999994515
  endloop
endfacet
facet normal 3.4083918470110574e-14 -1.0491181533079083e-13 -1.0
  outer loop
    vertex -10.333769291925659 226.70793349531095 26.958564999996415
    vertex 50.255986708076684 235.7079334953063 26.95856499999536
    vertex 57.25598670807521 226.7079334953098 26.958564999996156
  endloop
endfacet
facet normal 3.4083918470110574e-14 -1.0491181533079083e-13 -1.0
  outer loop
    vertex 50.255986708076684 235.7079334953063 26.95856499999536
    vertex -10.333769291925659 226.70793349531095 26.958564999996415
    vertex -18.33376929192302 235.70793349530612 26.958564999994515
  endloop
endfacet
facet normal 3.4083918470110574e-14 -1.0491181533079083e-13 -1.0
  outer loop
    vertex 57.25598670807548 148.70793349531075 26.958565000009628
    vertex 102.61277170807627 227.70793349530857 26.95856499999954
    vertex 102.61277170807584 148.70793349530956 26.958565000006246
  endloop
endfacet
facet normal 3.4083918470110574e-14 -1.0491181533079083e-13 -1.0
  outer loop
    vertex 102.61277170807627 227.70793349530857 26.95856499999954
    vertex 57.25598670807548 148.70793349531075 26.958565000009628
    vertex 80.50424470807494 227.70793349530604 26.958564999996312
  endloop
endfacet
facet normal 3.4083918470110574e-14 -1.0491181533079083e-13 -1.0
  outer loop
    vertex 80.50424470807494 227.70793349530604 26.958564999996312
    vertex 57.25598670807548 148.70793349531075 26.958565000009628
    vertex 80.50424470807499 239.70793349530567 26.958564999995897
  endloop
endfacet
facet normal 3.4083918470110574e-14 -1.0491181533079083e-13 -1.0
  outer loop
    vertex 80.50424470807499 239.70793349530567 26.958564999995897
    vertex 57.25598670807548 148.70793349531075 26.958565000009628
    vertex 57.25598670807521 226.7079334953098 26.958564999996156
  endloop
endfacet
facet normal 3.4083918470110574e-14 -1.0491181533079083e-13 -1.0
  outer loop
    vertex 80.50424470807499 239.70793349530567 26.958564999995897
    vertex 57.25598670807521 226.7079334953098 26.958564999996156
    vertex 50.255986708075035 239.70793349530615 26.95856499999537
  endloop
endfacet
facet normal 3.4083918470110574e-14 -1.0491181533079083e-13 -1.0
  outer loop
    vertex 50.255986708075035 239.70793349530615 26.95856499999537
    vertex 57.25598670807521 226.7079334953098 26.958564999996156
    vertex 50.255986708076684 235.7079334953063 26.95856499999536
  endloop
endfacet
facet normal -1.9734490841794517e-15 1.0 -1.1279865930192246e-14
  outer loop
    vertex -18.33376929192302 235.7079334953062 30.958564999994618
    vertex 50.255986708076684 235.7079334953063 26.95856499999536
    vertex -18.33376929192302 235.70793349530612 26.958564999994515
  endloop
endfacet
facet normal -1.9734490841794517e-15 1.0 -1.1279865930192246e-14
  outer loop
    vertex 50.255986708076684 235.7079334953063 26.95856499999536
    vertex -18.33376929192302 235.7079334953062 30.958564999994618
    vertex 50.25598670807666 235.7079334953063 30.958564999995126
  endloop
endfacet
facet normal 3.605102757398599e-15 1.0 -2.2225889838413675e-14
  outer loop
    vertex 50.25598670807396 242.70793349530578 1.6456669999953957
    vertex 80.50424470807675 242.70793349530638 30.95856499999519
    vertex 80.50424470807295 242.70793349530553 1.6456669999953617
  endloop
endfacet
facet normal 3.605102757398599e-15 1.0 -2.2225889838413675e-14
  outer loop
    vertex 80.50424470807675 242.70793349530638 30.95856499999519
    vertex 50.25598670807396 242.70793349530578 1.6456669999953957
    vertex 50.25598670807667 242.70793349530624 30.95856499999497
  endloop
endfacet
facet normal -1.0 -1.1357033040133348e-14 8.62157322216194e-14
  outer loop
    vertex 50.255986708074104 239.70793349530575 1.6456669999953957
    vertex 50.255986708075035 239.70793349530615 26.95856499999537
    vertex 50.25598670807396 242.70793349530578 1.6456669999953957
  endloop
endfacet
facet normal -1.0 -1.1357033040133348e-14 8.62157322216194e-14
  outer loop
    vertex 50.25598670807667 242.70793349530624 30.95856499999497
    vertex 50.255986708075035 239.70793349530615 26.95856499999537
    vertex 50.25598670807666 235.7079334953063 30.958564999995126
  endloop
endfacet
facet normal -1.0 -1.1357033040133348e-14 8.62157322216194e-14
  outer loop
    vertex 50.255986708075035 239.70793349530615 26.95856499999537
    vertex 50.25598670807667 242.70793349530624 30.95856499999497
    vertex 50.25598670807396 242.70793349530578 1.6456669999953957
  endloop
endfacet
facet normal -1.0 -1.1357033040133348e-14 8.62157322216194e-14
  outer loop
    vertex 50.25598670807666 235.7079334953063 30.958564999995126
    vertex 50.255986708075035 239.70793349530615 26.95856499999537
    vertex 50.255986708076684 235.7079334953063 26.95856499999536
  endloop
endfacet
facet normal -6.445637674395187e-16 -3.383959779057374e-14 -1.0
  outer loop
    vertex 50.255986708074104 239.70793349530575 1.6456669999953957
    vertex 80.50424470807295 242.70793349530553 1.6456669999953617
    vertex 80.50424470807386 239.7079334953053 1.6456669999953617
  endloop
endfacet
facet normal -6.445637674395187e-16 -3.383959779057374e-14 -1.0
  outer loop
    vertex 80.50424470807295 242.70793349530553 1.6456669999953617
    vertex 50.255986708074104 239.70793349530575 1.6456669999953957
    vertex 50.25598670807396 242.70793349530578 1.6456669999953957
  endloop
endfacet
facet normal 3.7549760951984124e-29 -1.0 3.3839597790573334e-14
  outer loop
    vertex 80.50424470807499 239.70793349530567 26.958564999995897
    vertex 50.255986708074104 239.70793349530575 1.6456669999953957
    vertex 80.50424470807386 239.7079334953053 1.6456669999953617
  endloop
endfacet
facet normal 3.7549760951984124e-29 -1.0 3.3839597790573334e-14
  outer loop
    vertex 50.255986708074104 239.70793349530575 1.6456669999953957
    vertex 80.50424470807499 239.70793349530567 26.958564999995897
    vertex 50.255986708075035 239.70793349530615 26.95856499999537
  endloop
endfacet
facet normal 1.4128311758575529e-15 1.025782177455714e-15 1.0
  outer loop
    vertex -10.333769291926185 157.61807849531286 81.79472599999946
    vertex 51.08454670807241 77.06607849530815 81.79472599999372
    vertex 51.08454670807379 157.61807849530803 81.7947259999937
  endloop
endfacet
facet normal 1.4128311758575529e-15 1.025782177455714e-15 1.0
  outer loop
    vertex 51.08454670807241 77.06607849530815 81.79472599999372
    vertex -10.333769291926185 157.61807849531286 81.79472599999946
    vertex 0.666230708072492 77.0660784953076 81.79472599999922
  endloop
endfacet
facet normal 1.4128311758575529e-15 1.025782177455714e-15 1.0
  outer loop
    vertex 0.666230708072492 77.0660784953076 81.79472599999922
    vertex -10.333769291926185 157.61807849531286 81.79472599999946
    vertex 0.6662307080724811 75.0660784953076 81.79472599999936
  endloop
endfacet
facet normal 1.4128311758575529e-15 1.025782177455714e-15 1.0
  outer loop
    vertex 0.6662307080724811 75.0660784953076 81.79472599999936
    vertex -10.333769291926185 157.61807849531286 81.79472599999946
    vertex -9.33376929192758 75.06607849530748 81.79472599999947
  endloop
endfacet
facet normal 1.4128311758575529e-15 1.025782177455714e-15 1.0
  outer loop
    vertex -18.333769291925684 174.61807849530763 81.79472599999941
    vertex -10.333769291926185 157.61807849531286 81.79472599999946
    vertex -10.333769291926089 174.6180784953128 81.7947259999981
  endloop
endfacet
facet normal 1.4128311758575529e-15 1.025782177455714e-15 1.0
  outer loop
    vertex -10.333769291926185 157.61807849531286 81.79472599999946
    vertex -18.333769291925684 174.61807849530763 81.79472599999941
    vertex -18.333769291922614 171.0940274953076 81.7947259999981
  endloop
endfacet
facet normal 1.4128311758575529e-15 1.025782177455714e-15 1.0
  outer loop
    vertex -9.33376929192758 75.06607849530748 81.79472599999947
    vertex -18.33376929192666 61.06607849530739 81.79472599999947
    vertex -9.333769291927114 61.06607849530759 81.79472599999954
  endloop
endfacet
facet normal 1.4128311758575529e-15 1.025782177455714e-15 1.0
  outer loop
    vertex -18.33376929192666 61.06607849530739 81.79472599999947
    vertex -9.33376929192758 75.06607849530748 81.79472599999947
    vertex -10.333769291926185 157.61807849531286 81.79472599999946
  endloop
endfacet
facet normal 1.4128311758575529e-15 1.025782177455714e-15 1.0
  outer loop
    vertex -18.33376929192666 61.06607849530739 81.79472599999947
    vertex -10.333769291926185 157.61807849531286 81.79472599999946
    vertex -18.333769291922614 171.0940274953076 81.7947259999981
  endloop
endfacet
endsolid Battery Holder
